<svg xmlns="http://www.w3.org/2000/svg" xmlns:xlink="http://www.w3.org/1999/xlink" width="500" zoomAndPan="magnify" viewBox="0 0 375 374.999991" height="500" preserveAspectRatio="xMidYMid meet" version="1.0"><defs><clipPath id="8e77579230"><path d="M 57.898438 115.445312 L 180.898438 115.445312 L 180.898438 259.445312 L 57.898438 259.445312 Z M 57.898438 115.445312 " clip-rule="nonzero"/></clipPath><clipPath id="9d6c4e318d"><path d="M 9.761719 145 L 47.261719 145 L 47.261719 230.144531 L 9.761719 230.144531 Z M 9.761719 145 " clip-rule="nonzero"/></clipPath><clipPath id="61cd9ec648"><path d="M 196.371094 146 L 273.621094 146 L 273.621094 229 L 196.371094 229 Z M 196.371094 146 " clip-rule="nonzero"/></clipPath><clipPath id="cd9bf1dc30"><path d="M 289.796875 146 L 364.046875 146 L 364.046875 229 L 289.796875 229 Z M 289.796875 146 " clip-rule="nonzero"/></clipPath></defs><g clip-path="url(#8e77579230)"><path fill="#000000" d="M 161.113281 144.65625 L 144.550781 178.878906 C 143.558594 180.9375 141.621094 182.386719 139.359375 182.769531 C 137.101562 183.152344 134.792969 182.421875 133.171875 180.804688 L 118.988281 166.671875 C 115.566406 163.257812 109.992188 163.257812 106.566406 166.671875 C 103.140625 170.082031 103.140625 175.636719 106.566406 179.050781 L 127.96875 200.378906 C 130.734375 203.136719 130.734375 207.601562 127.96875 210.355469 C 125.207031 213.109375 120.726562 213.109375 117.960938 210.355469 L 96.558594 189.023438 C 87.613281 180.113281 87.613281 165.609375 96.554688 156.695312 C 105.5 147.785156 120.054688 147.785156 129 156.695312 L 136.132812 163.804688 L 160.070312 115.492188 L 145.671875 134.261719 C 137.703125 130.503906 128.796875 128.402344 119.394531 128.402344 C 85.425781 128.402344 57.890625 155.839844 57.890625 189.6875 C 57.890625 206.40625 64.609375 221.558594 75.5 232.613281 L 91.492188 199.566406 C 92.488281 197.511719 94.421875 196.0625 96.683594 195.679688 C 98.941406 195.296875 101.25 196.03125 102.871094 197.644531 L 117.054688 211.777344 C 120.480469 215.191406 126.054688 215.191406 129.476562 211.777344 C 132.902344 208.363281 132.902344 202.8125 129.476562 199.398438 L 108.074219 178.066406 C 105.308594 175.3125 105.308594 170.847656 108.074219 168.09375 C 110.835938 165.339844 115.320312 165.339844 118.082031 168.09375 L 139.484375 189.421875 C 148.429688 198.335938 148.429688 212.839844 139.484375 221.753906 C 130.542969 230.664062 115.988281 230.664062 107.046875 221.753906 L 99.910156 214.644531 L 77.875 259.394531 L 90.472656 243.789062 C 99.09375 248.375 108.941406 250.976562 119.394531 250.976562 C 153.359375 250.976562 180.898438 223.535156 180.898438 189.6875 C 180.898438 171.882812 173.277344 155.855469 161.113281 144.65625 " fill-opacity="1" fill-rule="nonzero"/></g><g clip-path="url(#9d6c4e318d)"><path fill="#000000" d="M 17.617188 215.113281 C 17.78125 214.207031 17.910156 213.296875 17.992188 212.394531 C 17.394531 212.394531 16.792969 212.382812 16.1875 212.371094 C 15.367188 213.363281 14.347656 214.195312 13.5 215.164062 C 14.859375 215.167969 16.222656 215.152344 17.589844 215.136719 C 17.597656 215.128906 17.605469 215.117188 17.617188 215.113281 Z M 38.679688 212.824219 C 39.390625 211.652344 38.867188 210.777344 38.730469 209.5 C 38.386719 206.3125 38.523438 203.054688 38.476562 199.855469 C 38.402344 195.261719 38.175781 190.675781 38.007812 186.085938 C 37.765625 179.359375 38.074219 172.707031 38.230469 166.019531 C 37.515625 165.917969 36.800781 165.835938 36.078125 165.8125 C 36.027344 174.066406 35.472656 182.238281 35.789062 190.515625 C 35.949219 194.746094 36.171875 198.988281 36.238281 203.230469 C 36.300781 207.125 36.160156 210.960938 36.570312 214.824219 C 36.570312 214.507812 38.425781 213.246094 38.679688 212.824219 Z M 41.691406 217.539062 C 41.605469 217.492188 41.519531 217.433594 41.453125 217.347656 C 39.644531 217.347656 37.191406 217.347656 36.160156 217.347656 C 36.09375 217.359375 36.027344 217.355469 35.960938 217.347656 C 35.785156 217.347656 35.671875 217.347656 35.671875 217.347656 C 34.839844 217.347656 34.636719 216.414062 35.046875 215.949219 C 34.5625 212.050781 34.652344 208.21875 34.589844 204.285156 C 34.519531 199.691406 34.292969 195.101562 34.125 190.515625 C 33.816406 181.957031 34.410156 173.507812 34.425781 164.972656 C 34.425781 164.382812 34.917969 164.125 35.367188 164.175781 C 35.441406 164.152344 35.519531 164.140625 35.601562 164.140625 C 37.28125 164.125 39.21875 164.8125 40.9375 164.65625 C 41.476562 160.390625 41.277344 155.710938 41.34375 151.386719 C 36.449219 150.65625 31.296875 151.625 26.394531 151.917969 C 21.433594 152.21875 16.484375 152.324219 11.535156 151.859375 C 11.523438 155.949219 11.480469 160.039062 11.46875 164.128906 C 12.644531 164.023438 13.816406 164.015625 14.992188 164.03125 C 15.074219 164.007812 15.167969 163.992188 15.28125 163.996094 C 15.433594 164.023438 15.585938 164.03125 15.738281 164.042969 C 15.976562 164.046875 16.214844 164.050781 16.445312 164.058594 C 16.933594 164.035156 17.414062 163.964844 17.894531 163.832031 C 18.4375 163.75 18.925781 164.050781 18.949219 164.632812 C 19.304688 173.800781 20.101562 182.933594 20.070312 192.136719 C 20.058594 194.273438 21.40625 216.785156 18.402344 216.796875 C 16.429688 216.800781 14.457031 216.84375 12.484375 216.808594 C 12.132812 220.535156 12.550781 224.273438 12.628906 228.023438 C 17.609375 228.070312 22.589844 228.382812 27.570312 228.410156 C 32.183594 228.429688 36.871094 227.667969 41.476562 227.8125 C 41.394531 224.382812 41.640625 220.960938 41.691406 217.539062 Z M 42.019531 149.792969 C 42.820312 148.851562 43.574219 147.894531 44.179688 146.828125 C 39.601562 146.363281 34.828125 147.21875 30.28125 147.492188 C 25.242188 147.789062 20.203125 147.902344 15.167969 147.410156 C 14.324219 148.359375 13.554688 149.363281 12.695312 150.296875 C 17.597656 150.675781 22.515625 150.53125 27.421875 150.191406 C 32.222656 149.859375 37.164062 149.050781 41.957031 149.8125 C 41.976562 149.804688 42 149.792969 42.019531 149.792969 Z M 44.375 212.917969 C 43.03125 212.917969 41.554688 212.917969 40.59375 212.917969 C 40.582031 212.941406 40.574219 212.96875 40.554688 212.992188 C 39.828125 214 38.953125 214.847656 38.0625 215.6875 C 39.363281 215.6875 40.65625 215.6875 41.957031 215.6875 C 42.882812 214.898438 43.636719 213.90625 44.375 212.917969 Z M 44.902344 160.992188 C 44.902344 160.980469 44.902344 160.96875 44.894531 160.953125 C 44.761719 156.753906 45.078125 152.554688 45.203125 148.355469 C 44.558594 149.355469 43.792969 150.277344 43.015625 151.183594 C 42.953125 155.34375 42.625 159.488281 42.648438 163.644531 C 43.558594 162.867188 44.453125 162.042969 44.902344 160.992188 Z M 45.378906 224.019531 C 45.257812 220.695312 45.472656 217.382812 45.5625 214.058594 C 44.875 214.957031 44.175781 215.839844 43.363281 216.617188 C 43.363281 216.65625 43.375 216.691406 43.375 216.730469 C 43.347656 220.082031 43.105469 223.4375 43.125 226.789062 C 43.882812 225.871094 44.691406 224.996094 45.378906 224.019531 Z M 47.042969 224.046875 C 47.09375 224.199219 47.09375 224.367188 47.015625 224.539062 C 46.972656 224.683594 46.898438 224.796875 46.792969 224.882812 C 45.761719 226.347656 44.4375 227.589844 43.476562 229.105469 C 43.363281 229.367188 43.125 229.554688 42.75 229.527344 C 37.726562 229.160156 32.621094 230.136719 27.570312 230.070312 C 22.316406 229.996094 17.066406 229.6875 11.8125 229.664062 C 11.28125 229.664062 11.011719 229.25 11.007812 228.839844 C 10.992188 228.773438 10.980469 228.707031 10.980469 228.628906 C 10.9375 224.375 10.359375 220.132812 10.914062 215.898438 C 10.953125 215.578125 11.136719 215.355469 11.367188 215.226562 C 12.390625 213.65625 13.9375 212.542969 15.109375 211.085938 C 15.136719 211.046875 15.167969 211.027344 15.195312 210.992188 C 15.328125 210.816406 15.539062 210.695312 15.835938 210.707031 C 16.597656 210.726562 17.363281 210.734375 18.121094 210.734375 C 18.246094 208.5625 18.226562 206.378906 18.265625 204.140625 C 18.339844 199.40625 18.429688 194.679688 18.402344 189.945312 C 18.359375 181.851562 17.679688 173.800781 17.332031 165.730469 C 15.21875 165.707031 13.09375 165.542969 10.992188 165.84375 C 10.707031 165.882812 10.476562 165.792969 10.292969 165.636719 C 10.019531 165.53125 9.796875 165.285156 9.804688 164.898438 C 9.804688 160.378906 9.863281 155.863281 9.871094 151.339844 C 9.871094 151.304688 9.875 151.28125 9.882812 151.25 C 9.789062 150.996094 9.832031 150.707031 10.113281 150.476562 C 11.769531 149.109375 12.953125 147.320312 14.414062 145.769531 C 14.785156 145.371094 15.269531 145.484375 15.5625 145.78125 C 20.800781 146.261719 26.0625 146.128906 31.308594 145.765625 C 36.105469 145.433594 41.050781 144.621094 45.839844 145.382812 C 46.320312 145.257812 46.914062 145.511719 46.910156 146.152344 C 46.871094 151.0625 46.410156 155.957031 46.5625 160.871094 C 46.617188 161.015625 46.617188 161.1875 46.53125 161.386719 C 45.738281 163.300781 44.0625 164.488281 42.609375 165.875 C 42.523438 166.183594 42.265625 166.433594 41.84375 166.425781 C 41.191406 166.40625 40.539062 166.339844 39.890625 166.253906 C 39.730469 172.859375 39.417969 179.4375 39.671875 186.085938 C 39.835938 190.320312 40.054688 194.558594 40.125 198.796875 C 40.1875 202.984375 40.03125 207.101562 40.5625 211.257812 C 42.445312 211.257812 44.332031 211.257812 46.214844 211.257812 C 46.566406 211.257812 46.804688 211.425781 46.933594 211.644531 C 47.125 211.777344 47.257812 211.996094 47.257812 212.300781 C 47.226562 216.214844 46.898438 220.128906 47.042969 224.046875 " fill-opacity="1" fill-rule="nonzero"/></g><path fill="#000000" d="M 30.535156 226.878906 C 33.027344 226.941406 34.570312 227.046875 34.570312 227.175781 C 34.570312 227.300781 33.039062 227.433594 30.550781 227.539062 C 28.0625 227.628906 24.636719 227.769531 20.824219 227.667969 C 20.21875 227.652344 19.636719 227.652344 19.054688 227.625 C 18.464844 227.578125 17.929688 227.539062 17.367188 227.496094 C 16.246094 227.402344 15.25 227.320312 14.257812 227.234375 L 14.03125 227.203125 L 14.03125 226.8125 C 14.03125 222.644531 13.910156 219.773438 14.09375 219.773438 C 14.253906 219.773438 14.410156 222.417969 14.5625 226.441406 C 15.445312 226.484375 16.375 226.539062 17.355469 226.589844 C 17.910156 226.628906 18.476562 226.664062 19.058594 226.695312 C 19.636719 226.722656 20.230469 226.722656 20.835938 226.738281 C 24.613281 226.835938 28.050781 226.796875 30.535156 226.878906 " fill-opacity="1" fill-rule="nonzero"/><path fill="#000000" d="M 32.5625 196.65625 C 32.78125 200.730469 32.894531 204.429688 32.855469 207.121094 C 32.800781 209.792969 32.648438 211.441406 32.527344 211.441406 C 32.394531 211.441406 32.304688 209.785156 32.195312 207.121094 C 32.050781 204.457031 31.851562 200.773438 31.628906 196.707031 C 31.414062 192.632812 31.324219 188.929688 31.402344 186.25 C 31.488281 183.570312 31.667969 181.921875 31.789062 181.921875 C 31.929688 181.929688 31.984375 183.582031 32.0625 186.246094 C 32.15625 188.910156 32.34375 192.589844 32.5625 196.65625 " fill-opacity="1" fill-rule="nonzero"/><path fill="#000000" d="M 22.183594 181.691406 C 22.207031 183.066406 22.277344 184.5 22.25 185.957031 C 22.238281 188.867188 22.160156 191.648438 22.179688 194.167969 C 22.171875 195.429688 22.167969 196.628906 22.160156 197.753906 C 22.15625 198.875 22.140625 199.921875 22.078125 200.890625 C 22.023438 201.847656 21.984375 202.71875 21.921875 203.476562 C 21.816406 204.230469 21.730469 204.878906 21.65625 205.410156 C 21.496094 206.460938 21.378906 207.042969 21.316406 207.042969 C 21.25 207.03125 21.246094 206.4375 21.296875 205.371094 C 21.324219 204.839844 21.355469 204.1875 21.402344 203.429688 C 21.40625 202.675781 21.40625 201.808594 21.414062 200.863281 C 21.433594 199.917969 21.414062 198.875 21.386719 197.753906 C 21.363281 196.636719 21.339844 195.433594 21.316406 194.171875 C 21.25 191.644531 21.300781 188.867188 21.3125 185.953125 C 21.339844 184.496094 21.28125 183.085938 21.269531 181.710938 C 21.25 180.351562 21.234375 179.039062 21.214844 177.78125 C 21.097656 176.523438 20.980469 175.335938 20.875 174.214844 C 20.757812 173.09375 20.628906 172.070312 20.558594 171.101562 C 20.542969 170.625 20.523438 170.164062 20.507812 169.738281 C 20.519531 169.300781 20.523438 168.890625 20.53125 168.511719 C 20.546875 167.742188 20.597656 167.09375 20.628906 166.558594 C 20.695312 165.492188 20.761719 164.898438 20.832031 164.898438 C 20.898438 164.898438 20.953125 165.492188 20.996094 166.5625 C 21.011719 167.09375 21.03125 167.746094 21.058594 168.503906 C 21.070312 168.875 21.085938 169.273438 21.101562 169.699219 C 21.140625 170.132812 21.175781 170.585938 21.21875 171.054688 C 21.328125 171.984375 21.496094 173.03125 21.644531 174.144531 C 21.796875 175.257812 21.929688 176.445312 22.074219 177.707031 C 22.128906 179 22.152344 180.304688 22.183594 181.691406 " fill-opacity="1" fill-rule="nonzero"/><path fill="#000000" d="M 19.238281 162.269531 C 19.230469 162.390625 18.515625 162.496094 17.324219 162.636719 C 16.132812 162.753906 14.4375 162.972656 12.472656 162.582031 L 12.089844 162.507812 L 12.113281 162.097656 C 12.128906 161.761719 12.152344 161.425781 12.167969 161.074219 C 12.3125 158.960938 12.445312 157.046875 12.542969 155.660156 C 12.65625 154.269531 12.792969 153.414062 12.921875 153.414062 C 13.050781 153.414062 13.148438 154.28125 13.203125 155.675781 C 13.226562 156.367188 13.261719 157.203125 13.242188 158.125 C 13.210938 159.050781 13.164062 160.0625 13.105469 161.128906 C 13.089844 161.339844 13.078125 161.546875 13.066406 161.757812 C 14.664062 162.050781 16.1875 161.976562 17.292969 162.023438 C 18.496094 162.042969 19.238281 162.15625 19.238281 162.269531 " fill-opacity="1" fill-rule="nonzero"/><g clip-path="url(#61cd9ec648)"><path fill="#000000" d="M 252.402344 152.273438 C 253.367188 151.546875 254.121094 150.59375 255.046875 149.8125 C 244.890625 147.554688 234.460938 147.96875 224.121094 147.988281 C 224.011719 147.988281 223.914062 147.964844 223.828125 147.933594 C 223.066406 148.648438 222.320312 149.378906 221.582031 150.117188 C 231.90625 150.070312 242.296875 149.808594 252.402344 152.273438 Z M 265.902344 207.34375 C 265.585938 196.117188 267.484375 184.984375 267.363281 173.773438 C 261.679688 167.566406 257.199219 160.414062 251.992188 153.824219 C 241.507812 151.261719 230.707031 151.707031 220 151.722656 C 212.691406 159.3125 205.625 167.261719 198.292969 174.574219 C 198.253906 174.613281 198.214844 174.644531 198.171875 174.679688 C 199.375 185.097656 198.296875 195.582031 198.257812 206.042969 C 198.257812 206.058594 198.253906 206.070312 198.253906 206.085938 C 200.785156 208.207031 202.355469 211.1875 203.945312 214.050781 C 206.234375 218.160156 209.046875 221.8125 212.515625 225 C 219.066406 225.109375 225.4375 226.726562 231.96875 227.0625 C 238.300781 227.382812 244.367188 225.667969 250.652344 225.53125 C 254.785156 218.691406 261.671875 214.148438 265.875 207.367188 C 265.882812 207.359375 265.890625 207.355469 265.902344 207.34375 Z M 268.632812 172.59375 C 269.636719 171.757812 270.746094 171.003906 271.574219 170.003906 C 266.058594 163.976562 261.671875 157.046875 256.648438 150.613281 C 255.492188 151.328125 254.640625 152.441406 253.613281 153.328125 C 258.5625 159.679688 262.902344 166.5 268.324219 172.457031 C 268.4375 172.480469 268.539062 172.523438 268.632812 172.59375 Z M 270.140625 203.410156 C 269.875 192.972656 271.496094 182.609375 271.609375 172.183594 C 270.882812 172.820312 270.109375 173.394531 269.378906 174.042969 C 269.261719 174.148438 269.136719 174.203125 269.011719 174.234375 C 268.992188 174.257812 268.976562 174.277344 268.957031 174.300781 C 269.011719 184.855469 267.34375 195.347656 267.464844 205.914062 C 268.335938 205.046875 269.1875 204.183594 270.140625 203.410156 Z M 273.175781 169.285156 C 273.425781 169.472656 273.570312 169.789062 273.425781 170.132812 C 273.394531 170.292969 273.316406 170.4375 273.199219 170.5625 C 273.257812 181.613281 271.421875 192.582031 271.734375 203.640625 C 271.742188 203.796875 271.703125 203.925781 271.644531 204.039062 C 271.597656 204.195312 271.503906 204.34375 271.34375 204.464844 C 269.9375 205.519531 268.8125 206.890625 267.523438 208.074219 C 267.417969 208.171875 267.308594 208.230469 267.191406 208.261719 C 262.933594 215.085938 255.957031 219.648438 251.867188 226.597656 C 251.707031 226.863281 251.46875 226.976562 251.230469 226.976562 C 251.113281 227.066406 250.96875 227.121094 250.78125 227.128906 C 244.101562 227.257812 237.714844 229.183594 230.984375 228.59375 C 224.742188 228.046875 218.601562 226.667969 212.316406 226.59375 C 212.105469 226.59375 211.941406 226.519531 211.820312 226.410156 C 211.707031 226.378906 211.597656 226.320312 211.492188 226.226562 C 208.511719 223.503906 205.691406 220.332031 203.675781 216.808594 C 201.78125 213.507812 200.140625 209.503906 197.0625 207.136719 C 196.800781 206.933594 196.710938 206.644531 196.730469 206.371094 C 196.6875 206.273438 196.667969 206.167969 196.667969 206.042969 C 196.707031 195.449219 197.8125 184.832031 196.539062 174.277344 C 196.480469 173.824219 196.757812 173.578125 197.097656 173.523438 C 197.117188 173.5 197.140625 173.472656 197.167969 173.445312 C 204.617188 166.015625 210.945312 157.539062 218.652344 150.355469 C 218.859375 150.167969 219.085938 150.113281 219.304688 150.148438 C 220.472656 148.945312 221.667969 147.765625 222.898438 146.621094 C 223.167969 146.363281 223.492188 146.355469 223.75 146.476562 C 223.855469 146.417969 223.980469 146.386719 224.121094 146.386719 C 235.023438 146.371094 246.015625 145.933594 256.695312 148.546875 C 256.765625 148.566406 256.828125 148.589844 256.886719 148.621094 C 257.035156 148.644531 257.183594 148.722656 257.3125 148.890625 C 262.488281 155.433594 266.945312 162.542969 272.570312 168.722656 C 272.84375 168.773438 273.097656 168.96875 273.175781 169.285156 " fill-opacity="1" fill-rule="nonzero"/></g><path fill="#000000" d="M 265.105469 184.019531 C 265.332031 184.019531 265.582031 187.800781 265.371094 192.476562 C 265.105469 197.167969 264.261719 200.835938 264.042969 200.835938 C 263.761719 200.804688 264.21875 197.027344 264.476562 192.429688 C 264.6875 187.796875 264.835938 184.019531 265.105469 184.019531 " fill-opacity="1" fill-rule="nonzero"/><path fill="#000000" d="M 261.726562 168.960938 C 262.859375 170.34375 263.472656 171.273438 263.378906 171.34375 C 263.277344 171.429688 262.5 170.648438 261.257812 169.394531 C 259.992188 168.160156 258.238281 166.457031 256.304688 164.574219 C 254.367188 162.679688 252.71875 160.832031 251.625 159.398438 C 250.574219 157.960938 250.027344 156.996094 250.117188 156.925781 C 250.222656 156.839844 250.949219 157.675781 252.125 159.003906 C 253.304688 160.296875 255 162.042969 256.925781 163.933594 C 258.859375 165.824219 260.570312 167.59375 261.726562 168.960938 " fill-opacity="1" fill-rule="nonzero"/><path fill="#000000" d="M 260.726562 208.574219 C 260.816406 208.675781 260.113281 209.472656 258.992188 210.761719 C 257.882812 212.058594 256.402344 213.890625 254.769531 215.933594 C 253.136719 217.976562 251.589844 219.792969 250.382812 221.035156 C 249.167969 222.265625 248.347656 222.9375 248.261719 222.855469 C 248.164062 222.765625 248.832031 221.925781 249.914062 220.605469 C 250.980469 219.265625 252.453125 217.410156 254.070312 215.367188 C 255.710938 213.316406 257.289062 211.523438 258.535156 210.324219 C 259.789062 209.132812 260.652344 208.492188 260.726562 208.574219 " fill-opacity="1" fill-rule="nonzero"/><path fill="#000000" d="M 253.035156 174.097656 C 253.699219 175.214844 254.0625 175.9375 253.964844 176.011719 C 253.859375 176.082031 253.3125 175.484375 252.515625 174.457031 C 251.71875 173.421875 250.679688 171.96875 249.503906 170.394531 C 248.308594 168.84375 247.15625 167.492188 246.269531 166.609375 C 246.066406 166.371094 245.839844 166.175781 245.644531 166.003906 C 245.453125 165.832031 245.289062 165.679688 245.164062 165.550781 C 244.902344 165.289062 244.777344 165.117188 244.8125 165.070312 C 244.847656 165.019531 245.046875 165.089844 245.371094 165.269531 C 245.53125 165.351562 245.71875 165.464844 245.941406 165.597656 C 246.164062 165.730469 246.410156 165.886719 246.664062 166.109375 C 247.734375 166.933594 248.992188 168.261719 250.214844 169.847656 C 251.414062 171.457031 252.378906 172.976562 253.035156 174.097656 " fill-opacity="1" fill-rule="nonzero"/><path fill="#000000" d="M 242.28125 213.402344 C 243.316406 212.699219 244.3125 211.949219 245.273438 211.175781 C 238.992188 210.78125 232.691406 210.894531 226.414062 210.355469 C 226.128906 210.507812 225.773438 210.503906 225.539062 210.222656 C 225.226562 210.066406 225.078125 209.726562 225.085938 209.402344 C 223.160156 205.714844 220.285156 202.539062 217.460938 199.53125 C 217.421875 199.496094 217.394531 199.453125 217.363281 199.417969 C 217.101562 199.320312 216.914062 199.078125 216.960938 198.703125 C 217.910156 191.425781 217.25 184.132812 217.113281 176.832031 C 216.335938 177.882812 215.496094 178.882812 214.570312 179.820312 C 214.570312 179.839844 214.574219 179.863281 214.574219 179.882812 C 214.605469 187.316406 215.265625 194.738281 214.34375 202.136719 C 217.292969 205.277344 220.324219 208.628906 222.304688 212.5 C 228.914062 213.054688 235.550781 212.894531 242.160156 213.378906 C 242.203125 213.386719 242.246094 213.394531 242.28125 213.402344 Z M 251.703125 178.867188 C 251.691406 178.855469 251.6875 178.855469 251.675781 178.847656 C 248.070312 175.703125 245.976562 171.386719 242.960938 167.738281 L 242.957031 167.738281 C 236.144531 167.738281 229.628906 167.738281 223.03125 167.738281 C 221.46875 170.003906 220.109375 172.410156 218.59375 174.703125 C 218.648438 174.8125 218.683594 174.933594 218.683594 175.078125 C 218.726562 182.863281 219.554688 190.644531 218.582031 198.402344 C 221.539062 201.539062 224.566406 204.894531 226.546875 208.761719 C 233.15625 209.316406 239.792969 209.160156 246.402344 209.644531 C 246.597656 209.660156 246.753906 209.730469 246.875 209.828125 C 248.296875 208.574219 249.636719 207.222656 250.902344 205.773438 C 250.832031 205.660156 250.785156 205.53125 250.78125 205.375 C 250.445312 196.523438 251.628906 187.714844 251.703125 178.867188 Z M 252.957031 177.898438 C 253.15625 178.019531 253.300781 178.238281 253.300781 178.550781 C 253.25 187.496094 252.039062 196.402344 252.371094 205.359375 C 252.628906 205.644531 252.722656 206.101562 252.402344 206.472656 C 249.644531 209.730469 246.476562 212.484375 242.960938 214.875 C 242.742188 215.019531 242.523438 215.042969 242.339844 214.976562 C 242.289062 214.984375 242.222656 214.988281 242.160156 214.984375 C 235.5 214.496094 228.824219 214.660156 222.171875 214.09375 C 221.882812 214.246094 221.527344 214.238281 221.292969 213.957031 C 220.980469 213.804688 220.832031 213.460938 220.84375 213.140625 C 218.917969 209.453125 216.042969 206.273438 213.214844 203.269531 C 213.179688 203.230469 213.152344 203.1875 213.121094 203.152344 C 212.859375 203.058594 212.667969 202.816406 212.71875 202.4375 C 213.699219 194.941406 213.019531 187.410156 212.980469 179.882812 C 212.980469 179.804688 212.992188 179.734375 213.007812 179.667969 C 212.933594 179.425781 212.976562 179.152344 213.214844 178.917969 C 216.832031 175.398438 218.964844 170.753906 221.839844 166.664062 C 221.957031 166.507812 222.101562 166.410156 222.25 166.355469 C 222.378906 166.222656 222.554688 166.136719 222.796875 166.136719 C 229.425781 166.136719 235.96875 166.136719 242.8125 166.136719 C 243.09375 165.925781 243.488281 165.886719 243.78125 166.238281 C 246.960938 169.949219 249.082031 174.476562 252.800781 177.714844 C 252.871094 177.773438 252.917969 177.832031 252.957031 177.898438 " fill-opacity="1" fill-rule="nonzero"/><path fill="#000000" d="M 219.21875 165.332031 C 219.40625 165.488281 217.273438 168.371094 214.457031 171.761719 C 211.636719 175.152344 209.195312 177.769531 209.007812 177.609375 C 208.816406 177.457031 210.949219 174.570312 213.765625 171.183594 C 216.589844 167.792969 219.027344 165.175781 219.21875 165.332031 " fill-opacity="1" fill-rule="nonzero"/><path fill="#000000" d="M 210.035156 219.085938 C 211.160156 220.351562 212.007812 221 211.921875 221.121094 C 211.867188 221.207031 210.875 220.734375 209.585938 219.539062 C 208.933594 218.949219 208.253906 218.160156 207.539062 217.25 C 206.835938 216.332031 206.128906 215.285156 205.433594 214.160156 C 204.058594 211.90625 202.902344 209.847656 201.972656 208.417969 C 201.070312 206.984375 200.410156 206.125 200.515625 206.042969 C 200.601562 205.972656 201.414062 206.660156 202.492188 208.042969 C 203.570312 209.414062 204.832031 211.453125 206.195312 213.683594 C 206.878906 214.796875 207.554688 215.835938 208.195312 216.753906 C 208.859375 217.664062 209.464844 218.472656 210.035156 219.085938 " fill-opacity="1" fill-rule="nonzero"/><path fill="#000000" d="M 202.105469 176.679688 C 202.355469 176.679688 202.554688 180.445312 202.554688 185.085938 C 202.554688 189.734375 202.355469 193.496094 202.105469 193.496094 C 201.859375 193.496094 201.660156 189.734375 201.660156 185.085938 C 201.660156 180.445312 201.859375 176.679688 202.105469 176.679688 " fill-opacity="1" fill-rule="nonzero"/><g clip-path="url(#cd9bf1dc30)"><path fill="#000000" d="M 309.03125 151.074219 C 310.101562 150.007812 311.402344 149.179688 312.449219 148.101562 C 306.816406 148.84375 301.132812 148.21875 295.464844 148.183594 C 295.371094 148.183594 295.277344 148.160156 295.199219 148.132812 C 294.1875 149.230469 293.152344 150.300781 292.160156 151.410156 C 297.789062 151.546875 303.464844 152.128906 309.03125 151.074219 Z M 310.125 197.765625 C 310.210938 192.625 310.230469 187.46875 310.246094 182.316406 C 309.335938 180.246094 308.476562 178.113281 307.105469 176.402344 C 307.03125 185.113281 307.144531 193.871094 306.921875 202.574219 C 306.71875 210.332031 305.578125 218.347656 307.09375 226.03125 C 308.445312 225.195312 309.578125 224.050781 310.613281 222.828125 C 308.679688 214.609375 309.988281 206.109375 310.125 197.765625 Z M 341.652344 201.28125 C 341.964844 198.59375 342.203125 195.902344 342.355469 193.210938 C 341.335938 191.394531 340.386719 189.527344 339.269531 187.855469 C 336.191406 183.257812 332.765625 178.90625 329.558594 174.398438 C 326.5625 170.183594 323.957031 165.832031 321.566406 161.253906 C 319.300781 156.914062 317.054688 152.539062 314.097656 148.628906 C 312.964844 149.9375 311.492188 150.878906 310.269531 152.089844 C 316.132812 159.71875 319.488281 168.929688 325.007812 176.800781 C 328.191406 181.328125 331.640625 185.664062 334.757812 190.238281 C 336.226562 192.382812 337.71875 194.550781 338.933594 196.859375 C 339.753906 198.410156 340.550781 199.941406 341.652344 201.28125 Z M 357.285156 191.234375 C 357.3125 178.640625 357.613281 166.054688 357.640625 153.460938 C 353.0625 152.835938 348.441406 152.664062 343.824219 152.636719 C 344.214844 156.609375 343.925781 160.671875 343.984375 164.65625 C 344.042969 169.035156 344.152344 173.421875 344.207031 177.804688 C 344.296875 186.15625 344.148438 194.738281 343.054688 202.917969 C 342.996094 203.367188 342.640625 203.621094 342.285156 203.667969 C 342.035156 203.746094 341.753906 203.710938 341.511719 203.484375 C 338.410156 200.570312 336.816406 196.171875 334.46875 192.660156 C 331.390625 188.0625 327.964844 183.710938 324.753906 179.203125 C 321.761719 174.992188 319.148438 170.640625 316.757812 166.0625 C 314.375 161.488281 312.019531 156.871094 308.816406 152.804688 C 308.785156 152.785156 308.757812 152.765625 308.730469 152.742188 C 303.015625 153.695312 297.238281 153.089844 291.46875 153 C 291.5625 165.230469 292.234375 177.429688 292.054688 189.679688 C 291.867188 201.984375 291.488281 214.285156 291.46875 226.585938 C 296.101562 227.289062 300.785156 227.089844 305.457031 227.046875 C 305.492188 226.964844 305.546875 226.890625 305.628906 226.824219 C 303.957031 218.855469 305.183594 210.636719 305.320312 202.574219 C 305.476562 193.375 305.40625 184.167969 305.519531 174.96875 C 305.519531 174.894531 305.53125 174.820312 305.550781 174.753906 C 305.21875 174.105469 306.1875 173.296875 306.886719 173.867188 C 310.617188 176.945312 311.164062 181.476562 313.574219 185.242188 C 316.535156 189.878906 319.757812 194.339844 322.652344 199.023438 C 325.714844 203.988281 328.511719 209.160156 331.933594 213.898438 C 335.15625 218.375 338.941406 222.414062 342.207031 226.863281 C 347.058594 226.871094 351.914062 226.941406 356.773438 226.851562 C 355.914062 221.050781 356.796875 215.320312 357 209.488281 C 357.214844 203.410156 357.273438 197.316406 357.285156 191.234375 Z M 358.136719 151.925781 C 359.109375 150.703125 360.25 149.640625 361.332031 148.515625 C 357.019531 147.988281 352.675781 147.847656 348.339844 147.828125 C 347.613281 149.136719 346.578125 150.113281 345.480469 151.054688 C 349.710938 151.117188 353.9375 151.34375 358.136719 151.925781 Z M 362.085938 186.429688 C 362.113281 174.171875 362.402344 161.921875 362.433594 149.667969 C 361.347656 150.789062 360.183594 151.851562 359.242188 153.105469 C 359.226562 165.480469 358.914062 177.847656 358.890625 190.226562 C 358.875 196.308594 358.855469 202.402344 358.640625 208.484375 C 358.433594 214.332031 357.484375 220.183594 358.253906 226.003906 C 359.460938 224.886719 360.355469 223.417969 361.621094 222.359375 C 360.683594 216.453125 361.597656 210.621094 361.804688 204.679688 C 362.015625 198.605469 362.078125 192.511719 362.085938 186.429688 Z M 364.046875 147.914062 C 364.035156 160.414062 363.714844 172.914062 363.695312 185.421875 C 363.679688 191.5 363.65625 197.597656 363.441406 203.679688 C 363.21875 210 362.125 216.324219 363.277344 222.613281 C 363.371094 223.121094 363.03125 223.480469 362.648438 223.585938 C 361.109375 224.90625 360.078125 226.722656 358.4375 227.917969 C 358.332031 228.210938 358.070312 228.425781 357.707031 228.4375 C 352.378906 228.5625 347.046875 228.46875 341.71875 228.464844 C 341.28125 228.464844 341.03125 228.167969 340.964844 227.835938 C 340.925781 227.800781 340.886719 227.757812 340.851562 227.710938 C 337.386719 222.980469 333.292969 218.75 329.984375 213.90625 C 326.867188 209.34375 324.195312 204.511719 321.269531 199.828125 C 318.300781 195.085938 315.0625 190.523438 312.039062 185.820312 C 311.976562 185.730469 311.925781 185.636719 311.871094 185.546875 C 311.859375 189.628906 311.832031 193.703125 311.726562 197.765625 C 311.507812 206.066406 310.21875 214.652344 312.25 222.820312 C 312.335938 223.164062 312.207031 223.4375 311.996094 223.613281 C 311.960938 223.683594 311.925781 223.753906 311.867188 223.824219 C 310.605469 225.324219 309.179688 226.75 307.457031 227.6875 C 307.566406 228.296875 307.007812 228.675781 306.519531 228.617188 C 306.460938 228.628906 306.390625 228.640625 306.320312 228.640625 C 301.070312 228.660156 295.835938 228.925781 290.628906 228.078125 C 290.359375 228.035156 290.191406 227.882812 290.105469 227.703125 C 289.964844 227.574219 289.863281 227.386719 289.863281 227.128906 C 289.871094 214.640625 290.277344 202.167969 290.453125 189.679688 C 290.539062 183.441406 290.585938 177.191406 290.480469 170.949219 C 290.375 164.804688 289.902344 158.679688 289.863281 152.539062 C 289.863281 152.453125 289.878906 152.371094 289.898438 152.300781 C 289.890625 152.257812 289.886719 152.214844 289.886719 152.171875 C 289.8125 151.925781 289.84375 151.640625 290.050781 151.394531 C 291.414062 149.777344 292.894531 148.285156 294.324219 146.722656 C 294.617188 146.40625 294.984375 146.417969 295.261719 146.601562 C 295.328125 146.585938 295.394531 146.578125 295.464844 146.578125 C 301.617188 146.621094 307.839844 147.429688 313.929688 146.25 C 314.535156 146.136719 314.929688 146.636719 314.933594 147.101562 C 320.890625 154.761719 324.246094 164.058594 329.816406 171.996094 C 332.996094 176.523438 336.441406 180.859375 339.558594 185.429688 C 340.5625 186.898438 341.578125 188.386719 342.507812 189.90625 C 342.660156 185.535156 342.65625 181.15625 342.59375 176.785156 C 342.527344 172.410156 342.414062 168.03125 342.367188 163.652344 C 342.328125 159.785156 342.617188 155.855469 342.164062 152.003906 C 342.148438 151.855469 342.171875 151.734375 342.214844 151.625 C 342.292969 151.300781 342.539062 151.027344 342.964844 151.027344 C 342.992188 151.027344 343.019531 151.027344 343.046875 151.027344 C 344.503906 149.777344 346.070312 148.671875 347 146.9375 C 347.039062 146.566406 347.289062 146.222656 347.765625 146.222656 C 352.902344 146.234375 358.023438 146.425781 363.105469 147.140625 C 363.117188 147.140625 363.128906 147.144531 363.144531 147.152344 C 363.574219 147.097656 364.046875 147.347656 364.046875 147.914062 " fill-opacity="1" fill-rule="nonzero"/></g><path fill="#000000" d="M 354.949219 172.761719 C 354.984375 176.132812 354.96875 180.785156 354.894531 185.921875 C 354.820312 191.058594 354.699219 195.710938 354.574219 199.074219 C 354.441406 202.4375 354.300781 204.523438 354.171875 204.523438 C 354.046875 204.515625 353.972656 202.433594 353.933594 199.070312 C 353.902344 195.699219 353.917969 191.046875 353.992188 185.914062 C 354.066406 180.777344 354.183594 176.125 354.3125 172.761719 C 354.441406 169.398438 354.585938 167.316406 354.707031 167.316406 C 354.835938 167.316406 354.914062 169.398438 354.949219 172.761719 " fill-opacity="1" fill-rule="nonzero"/><path fill="#000000" d="M 346.347656 160.550781 C 346.59375 160.550781 346.796875 164.855469 346.796875 170.164062 C 346.796875 175.472656 346.59375 179.773438 346.347656 179.773438 C 346.097656 179.773438 345.894531 175.472656 345.894531 170.164062 C 345.894531 164.855469 346.097656 160.550781 346.347656 160.550781 " fill-opacity="1" fill-rule="nonzero"/><path fill="#000000" d="M 339.15625 219.027344 C 339.710938 219.855469 339.992188 220.328125 339.945312 220.363281 C 339.890625 220.398438 339.511719 219.996094 338.871094 219.230469 C 338.222656 218.484375 337.371094 217.328125 336.1875 216 C 335.027344 214.660156 333.65625 213.039062 332.148438 211.210938 C 331.359375 210.316406 330.671875 209.296875 329.898438 208.269531 C 329.523438 207.753906 329.132812 207.238281 328.753906 206.695312 C 328.375 206.148438 327.988281 205.589844 327.605469 205.023438 C 326.109375 202.730469 324.820312 200.480469 323.675781 198.421875 C 323.097656 197.398438 322.554688 196.425781 322.042969 195.519531 C 321.523438 194.617188 321.027344 193.777344 320.578125 193.011719 C 319.652344 191.511719 318.902344 190.296875 318.316406 189.484375 C 317.761719 188.65625 317.476562 188.179688 317.53125 188.144531 C 317.574219 188.105469 317.957031 188.503906 318.597656 189.269531 C 319.261719 190.007812 320.105469 191.191406 321.121094 192.671875 C 321.597656 193.425781 322.140625 194.242188 322.683594 195.132812 C 323.222656 196.035156 323.804688 196.992188 324.398438 198.011719 C 325.582031 200.046875 326.878906 202.265625 328.351562 204.527344 C 328.738281 205.082031 329.109375 205.628906 329.476562 206.171875 C 329.851562 206.710938 330.246094 207.234375 330.613281 207.753906 C 331.378906 208.78125 332.0625 209.824219 332.808594 210.710938 C 334.265625 212.554688 335.578125 214.207031 336.679688 215.597656 C 337.800781 216.980469 338.589844 218.207031 339.15625 219.027344 " fill-opacity="1" fill-rule="nonzero"/><path fill="#000000" d="M 320.253906 176.097656 C 321.128906 178.203125 321.546875 179.5625 321.441406 179.597656 C 321.3125 179.644531 320.691406 178.386719 319.679688 176.367188 C 318.644531 174.355469 317.136719 171.621094 315.40625 168.625 C 313.664062 165.636719 312.09375 162.910156 311.035156 160.890625 C 309.980469 158.871094 309.414062 157.585938 309.523438 157.527344 C 309.632812 157.460938 310.398438 158.648438 311.589844 160.582031 C 312.78125 162.503906 314.433594 165.171875 316.183594 168.167969 C 317.921875 171.175781 319.359375 173.992188 320.253906 176.097656 " fill-opacity="1" fill-rule="nonzero"/><path fill="#000000" d="M 293.6875 175.503906 C 293.9375 175.503906 294.136719 181.484375 294.136719 188.855469 C 294.136719 196.230469 293.9375 202.207031 293.6875 202.207031 C 293.4375 202.207031 293.238281 196.230469 293.238281 188.855469 C 293.238281 181.484375 293.4375 175.503906 293.6875 175.503906 " fill-opacity="1" fill-rule="nonzero"/></svg>