<svg width="450" height="346" viewBox="0 0 450 346" fill="none" xmlns="http://www.w3.org/2000/svg">
<ellipse cx="157.932" cy="97.5857" rx="18.5" ry="40.406" transform="rotate(-13.3888 157.932 97.5857)" fill="#D9D9D9"/>
<path d="M230.436 125.897C234.227 130.306 244.055 137.766 253.042 132.338" stroke="#DDE0EA" stroke-opacity="0.54" stroke-width="3" stroke-linecap="round"/>
<path d="M136.5 160C143.5 146.5 165 122.9 195 136.5" stroke="#4F657D" stroke-opacity="0.52" stroke-width="6" stroke-linecap="round"/>
<path d="M208.5 231.5C229.5 224.5 232.153 226.017 261 215.5" stroke="#26254D" stroke-opacity="0.77" stroke-width="3" stroke-linecap="round"/>
<path d="M222.834 114.184C226.334 63.599 274.334 59.099 291.334 92.099" stroke="#9CA3B5" stroke-opacity="0.89" stroke-width="6" stroke-linecap="round"/>
<path fill-rule="evenodd" clip-rule="evenodd" d="M40 206.402C40.478 206.595 83.558 218.356 150.697 215.708C185.219 214.401 221.115 208.563 260.453 194.893C299.322 181.484 341.633 160.243 378.16 134.188C398.998 121.906 407.301 117.001 412.045 115.295C416.472 113.766 417.34 115.436 415.98 120.406C413.395 129.53 393.532 156.536 359.582 188.455C324.373 219.168 281.312 251.331 222.532 258.325C165.587 266.382 92.159 249.697 40 206.402Z" fill="#181822"/>
</svg>
