<svg width="294" height="96" viewBox="0 0 294 96" fill="none" xmlns="http://www.w3.org/2000/svg">
<mask id="mask0_304_2" style="mask-type:luminance" maskUnits="userSpaceOnUse" x="45" y="21" width="97" height="60">
<path d="M45.3924 21.4215H141.824V81H45.3924V21.4215Z" fill="white"/>
</mask>
<g mask="url(#mask0_304_2)">
<path d="M126.313 33.5072L113.328 47.6665C112.55 48.5182 111.031 49.1178 109.258 49.2762C107.487 49.4346 105.678 49.1324 104.407 48.4633L93.2867 42.616C90.6039 41.2034 86.2337 41.2034 83.5479 42.616C80.8621 44.0269 80.8621 46.3251 83.5479 47.7376L100.327 56.5619C102.496 57.7029 102.496 59.5502 100.327 60.6896C98.1622 61.829 94.6495 61.829 92.4812 60.6896L75.7018 51.8637C68.6887 48.1772 68.6887 42.1764 75.6987 38.4883C82.7119 34.8018 94.1227 34.8018 101.136 38.4883L106.728 41.4297L125.495 21.4409L114.207 29.2066C107.959 27.6518 100.977 26.7823 93.6052 26.7823C66.9737 26.7823 45.3861 38.1343 45.3861 52.1384C45.3861 59.0556 50.6536 65.3248 59.1919 69.8985L71.7297 56.2257C72.5107 55.3756 74.0266 54.776 75.7998 54.6176C77.5699 54.4593 79.3799 54.7631 80.6508 55.4306L91.7707 61.2779C94.4565 62.6904 98.8267 62.6904 101.509 61.2779C104.195 59.8653 104.195 57.5688 101.509 56.1562L84.73 47.3303C82.5618 46.1909 82.5618 44.3436 84.73 43.2042C86.8952 42.0648 90.411 42.0648 92.5762 43.2042L109.356 52.0285C116.369 55.7166 116.369 61.7175 109.356 65.4056C102.346 69.0921 90.9347 69.0921 83.9246 65.4056L78.3294 62.4641L61.0539 80.979L70.9304 74.5224C77.6894 76.4198 85.4099 77.4962 93.6052 77.4962C120.234 77.4962 141.824 66.1426 141.824 52.1384C141.824 44.7719 135.849 38.1408 126.313 33.5072Z" fill="white"/>
</g>
<mask id="mask1_304_2" style="mask-type:luminance" maskUnits="userSpaceOnUse" x="7" y="21" width="34" height="60">
<path d="M7.6532 21.4215H41V81H7.6532V21.4215Z" fill="white"/>
</mask>
<g mask="url(#mask1_304_2)">
<path d="M14.6386 70.4821C14.7845 69.8479 14.8992 69.2111 14.9721 68.5797C14.4407 68.5797 13.9057 68.5715 13.3673 68.5633C12.6378 69.2575 11.7312 69.8397 10.9774 70.5176C12.1863 70.5203 13.3986 70.5094 14.6143 70.4985C14.6213 70.493 14.6282 70.4848 14.6386 70.4821ZM33.3684 68.8803C34.0006 68.0603 33.5352 67.4481 33.4136 66.5543C33.1079 64.3239 33.2295 62.0443 33.1878 59.8057C33.1218 56.5913 32.9203 53.3823 32.771 50.1707C32.5556 45.4639 32.83 40.809 32.969 36.1295C32.3333 36.0585 31.6976 36.0011 31.055 35.9847C31.0098 41.7602 30.5166 47.4783 30.798 53.2703C30.9404 56.2305 31.1384 59.1989 31.1974 62.1673C31.253 64.8924 31.1279 67.5765 31.4927 70.2798C31.4927 70.0584 33.1426 69.1755 33.3684 68.8803ZM36.0466 72.1795C35.9702 72.1467 35.8938 72.1057 35.8347 72.0455C34.2264 72.0455 32.045 72.0455 31.1279 72.0455C31.0689 72.0537 31.0098 72.051 30.9508 72.0455C30.7945 72.0455 30.6937 72.0455 30.6937 72.0455C29.9539 72.0455 29.7732 71.3923 30.138 71.067C29.7072 68.3391 29.7871 65.6577 29.7316 62.9053C29.669 59.6909 29.4676 56.4792 29.3182 53.2703C29.0438 47.2815 29.5718 41.3693 29.5857 35.397C29.5857 34.9843 30.0233 34.8039 30.4228 34.8394C30.4888 34.823 30.5583 34.8148 30.6312 34.8148C32.1249 34.8039 33.8478 35.2849 35.3762 35.1756C35.8556 32.1908 35.6784 28.9162 35.7374 25.8904C31.385 25.3793 26.8033 26.0572 22.4439 26.2622C18.0324 26.4726 13.6313 26.5464 9.23022 26.2212C9.2198 29.083 9.18159 31.9448 9.17116 34.8066C10.2167 34.7328 11.2588 34.7273 12.3044 34.7383C12.3773 34.7218 12.4607 34.7109 12.5614 34.7137C12.6969 34.7328 12.8324 34.7383 12.9678 34.7465C13.1797 34.7492 13.3916 34.7519 13.5966 34.7574C14.0308 34.741 14.458 34.6918 14.8853 34.5989C15.3681 34.5415 15.8023 34.7519 15.8232 35.1592C16.1393 41.5743 16.8479 47.9649 16.8201 54.4046C16.8097 55.8997 18.0081 71.6519 15.3368 71.6601C13.5827 71.6629 11.8285 71.6929 10.0743 71.6683C9.76168 74.2759 10.1334 76.8917 10.2028 79.5158C14.6317 79.5485 19.0606 79.7672 23.4894 79.7864C27.5918 79.8 31.7601 79.267 35.8556 79.3682C35.7826 76.9683 36.0014 74.5739 36.0466 72.1795ZM36.3384 24.7752C37.0505 24.1165 37.7209 23.4468 38.2593 22.7006C34.1882 22.3754 29.9434 22.974 25.9001 23.1653C21.4192 23.373 16.9382 23.4523 12.4607 23.1079C11.7104 23.7721 11.0261 24.4746 10.2619 25.1278C14.6213 25.393 18.9946 25.2918 23.3574 25.054C27.6265 24.8217 32.0207 24.2559 36.2828 24.7889C36.3002 24.7834 36.321 24.7752 36.3384 24.7752ZM38.433 68.9459C37.2381 68.9459 35.925 68.9459 35.0705 68.9459C35.0601 68.9623 35.0531 68.9815 35.0358 68.9979C34.3897 69.7031 33.6116 70.2962 32.8196 70.8839C33.9763 70.8839 35.1261 70.8839 36.2828 70.8839C37.1061 70.3317 37.7765 69.6375 38.433 68.9459ZM38.9019 32.6117C38.9019 32.6035 38.9019 32.5953 38.895 32.5844C38.7769 29.646 39.0582 26.7077 39.1694 23.7694C38.5962 24.4691 37.9154 25.1142 37.2242 25.7483C37.1686 28.6593 36.8768 31.5594 36.8976 34.4677C37.707 33.9237 38.5025 33.347 38.9019 32.6117ZM39.3257 76.7141C39.218 74.388 39.4091 72.0701 39.489 69.7441C38.8776 70.3727 38.2558 70.9905 37.5333 71.5344C37.5333 71.5617 37.5437 71.5863 37.5437 71.6137C37.5194 73.9589 37.3041 76.3068 37.3214 78.652C37.9953 78.0097 38.7143 77.3974 39.3257 76.7141ZM40.8055 76.7332C40.8506 76.8398 40.8506 76.9573 40.7812 77.0776C40.7429 77.1787 40.6769 77.258 40.5832 77.3181C39.6661 78.3431 38.4886 79.2123 37.634 80.2729C37.5333 80.456 37.3214 80.5872 36.988 80.5681C32.5209 80.3112 27.9808 80.9945 23.4894 80.948C18.8174 80.8961 14.1489 80.6802 9.47684 80.6638C9.00443 80.6638 8.76475 80.374 8.76128 80.087C8.74738 80.0406 8.73696 79.9941 8.73696 79.9394C8.69875 76.9628 8.18465 73.9944 8.67791 71.0315C8.71265 70.8073 8.87591 70.6515 9.08085 70.5613C9.99094 69.4625 11.3665 68.6835 12.4086 67.664C12.4329 67.6367 12.4607 67.623 12.485 67.5984C12.6031 67.4754 12.7907 67.3907 13.0547 67.3989C13.732 67.4125 14.4129 67.418 15.0867 67.418C15.1979 65.8983 15.1805 64.3703 15.2153 62.8041C15.2813 59.4913 15.3612 56.184 15.3368 52.8712C15.2986 47.2077 14.6942 41.5743 14.3851 35.9273C12.5058 35.9109 10.6162 35.7961 8.74738 36.0065C8.49381 36.0339 8.28886 35.971 8.1256 35.8617C7.88245 35.7879 7.68445 35.6157 7.6914 35.3451C7.6914 32.1826 7.7435 29.0228 7.75045 25.8576C7.75045 25.833 7.75392 25.8166 7.76087 25.7948C7.6775 25.6171 7.71572 25.4148 7.96582 25.2536C9.43863 24.2969 10.4911 23.045 11.7903 21.9599C12.1203 21.6811 12.551 21.7604 12.8115 21.9681C17.4697 22.3043 22.1486 22.2114 26.8137 21.9572C31.0793 21.7248 35.4769 21.1563 39.7356 21.6893C40.1628 21.6018 40.6908 21.7795 40.6874 22.2278C40.6526 25.6636 40.2427 29.0884 40.3782 32.527C40.4268 32.6281 40.4268 32.7484 40.3504 32.8878C39.6453 34.2271 38.1551 35.0581 36.8629 36.0284C36.7865 36.2443 36.5572 36.4193 36.1821 36.4138C35.602 36.4001 35.0219 36.3537 34.4453 36.2935C34.3028 40.9156 34.025 45.5185 34.2507 50.1707C34.3966 53.1336 34.5912 56.0993 34.6537 59.0649C34.7093 61.9951 34.5703 64.876 35.0427 67.7843C36.717 67.7843 38.3948 67.7843 40.0691 67.7843C40.3817 67.7843 40.5936 67.9018 40.7082 68.0549C40.8784 68.1478 40.9965 68.3009 40.9965 68.5141C40.9687 71.2529 40.6769 73.9917 40.8055 76.7332Z" fill="white"/>
</g>
<path d="M26.1259 78.7149C28.3421 78.7587 29.7142 78.8325 29.7142 78.9227C29.7142 79.0101 28.3525 79.1031 26.1398 79.1769C23.9271 79.2397 20.8808 79.3381 17.4905 79.2671C16.9521 79.2561 16.4345 79.2561 15.917 79.237C15.3924 79.2042 14.9166 79.1769 14.4164 79.1468C13.4194 79.0812 12.5336 79.0238 11.6513 78.9637L11.4499 78.9418V78.6685C11.4499 75.752 11.3422 73.743 11.5055 73.743C11.6479 73.743 11.7868 75.5934 11.9223 78.4088C12.7073 78.4389 13.5341 78.4771 14.4059 78.5127C14.8992 78.54 15.4029 78.5646 15.9204 78.5865C16.4345 78.6056 16.9625 78.6056 17.5009 78.6165C20.8599 78.6849 23.9167 78.6575 26.1259 78.7149Z" fill="white"/>
<path d="M27.9287 57.5671C28.1232 60.418 28.224 63.0064 28.1892 64.8897C28.1406 66.7593 28.0051 67.9128 27.8975 67.9128C27.7794 67.9128 27.6995 66.7538 27.6022 64.8897C27.4737 63.0256 27.2965 60.448 27.0985 57.6026C26.9075 54.7518 26.8276 52.1606 26.8971 50.2855C26.9735 48.4104 27.1333 47.257 27.2409 47.257C27.366 47.2624 27.4146 48.4186 27.4841 50.2828C27.5675 52.1469 27.7342 54.7217 27.9287 57.5671Z" fill="white"/>
<path d="M18.6993 47.0956C18.7201 48.0578 18.7827 49.0609 18.7583 50.0804C18.7479 52.1168 18.6784 54.0629 18.6958 55.8259C18.6889 56.7088 18.6854 57.5479 18.6785 58.3351C18.675 59.1196 18.6611 59.8521 18.6055 60.53C18.5569 61.1997 18.5221 61.8092 18.4666 62.3395C18.3728 62.867 18.2964 63.3207 18.2304 63.6925C18.0879 64.4277 17.9837 64.835 17.9281 64.835C17.8691 64.8268 17.8656 64.4113 17.9108 63.6651C17.9351 63.2934 17.9629 62.8369 18.0046 62.3067C18.008 61.7791 18.008 61.1723 18.015 60.5109C18.0324 59.8494 18.015 59.1196 17.9907 58.3351C17.9698 57.5534 17.949 56.7115 17.9281 55.8286C17.8691 54.0602 17.9143 52.1168 17.9247 50.0777C17.949 49.0582 17.8969 48.0714 17.8865 47.1093C17.8691 46.1581 17.8552 45.2397 17.8378 44.3596C17.7336 43.4794 17.6294 42.6485 17.5356 41.864C17.4314 41.0796 17.3168 40.3634 17.2543 39.6856C17.2404 39.3521 17.223 39.0296 17.2091 38.7316C17.2195 38.4255 17.223 38.1385 17.2299 37.8734C17.2438 37.3349 17.289 36.8812 17.3168 36.5067C17.3758 35.7605 17.4349 35.345 17.4974 35.345C17.5565 35.345 17.6051 35.7605 17.6433 36.5094C17.6572 36.8812 17.6746 37.3376 17.6989 37.8679C17.7093 38.1276 17.7232 38.4064 17.7371 38.7043C17.7718 39.0077 17.8031 39.3248 17.8413 39.6528C17.9386 40.3033 18.0879 41.0358 18.2199 41.8148C18.3554 42.5938 18.4735 43.4248 18.602 44.3076C18.6507 45.2124 18.6715 46.1253 18.6993 47.0956Z" fill="white"/>
<path d="M16.0802 33.5055C16.0733 33.5903 15.4376 33.6641 14.3782 33.7625C13.3187 33.8445 11.8112 33.9975 10.0639 33.7242L9.72351 33.6723L9.74435 33.3853C9.75825 33.1502 9.77909 32.9151 9.79298 32.6691C9.92151 31.1904 10.0396 29.8511 10.1265 28.8807C10.2272 27.9077 10.3488 27.3091 10.4634 27.3091C10.578 27.3091 10.6649 27.9159 10.7135 28.8917C10.7343 29.3755 10.7656 29.9604 10.7482 30.6055C10.7204 31.2533 10.6788 31.9612 10.6267 32.7074C10.6128 32.855 10.6023 32.9999 10.5919 33.1475C12.0126 33.3525 13.3673 33.3005 14.3504 33.3333C15.4203 33.347 16.0802 33.4263 16.0802 33.5055Z" fill="white"/>
<mask id="mask2_304_2" style="mask-type:luminance" maskUnits="userSpaceOnUse" x="148" y="21" width="67" height="58">
<path d="M148 21H214.519V79H148V21Z" fill="white"/>
</mask>
<g mask="url(#mask2_304_2)">
<path d="M196.248 25.3839C197.079 24.8762 197.728 24.2101 198.525 23.6642C189.779 22.0865 180.799 22.3758 171.895 22.3894C171.801 22.3894 171.717 22.3731 171.643 22.3512C170.987 22.8508 170.344 23.3612 169.709 23.8771C178.599 23.8444 187.546 23.6615 196.248 25.3839ZM207.872 63.8668C207.6 56.0217 209.235 48.2421 209.13 40.408C204.236 36.0705 200.378 31.0725 195.895 26.4676C186.867 24.6769 177.566 24.9881 168.346 24.999C162.053 30.3028 155.968 35.8576 149.655 40.9676C149.621 40.9949 149.588 41.0167 149.551 41.0413C150.587 48.3213 149.658 55.6477 149.625 62.9578C149.625 62.9687 149.621 62.9769 149.621 62.9878C151.801 64.47 153.153 66.5527 154.522 68.5536C156.493 71.4252 158.915 73.9774 161.902 76.2049C167.543 76.2813 173.029 77.4114 178.653 77.6461C184.105 77.8699 189.329 76.6716 194.741 76.5761C198.3 71.7964 204.23 68.6218 207.849 63.8831C207.856 63.8777 207.862 63.8749 207.872 63.8668ZM210.224 39.5836C211.088 38.9995 212.043 38.4727 212.756 37.7739C208.007 33.562 204.23 28.7195 199.904 24.2238C198.908 24.7233 198.175 25.5013 197.29 26.1209C201.552 30.5593 205.289 35.3253 209.958 39.4881C210.055 39.5045 210.143 39.5345 210.224 39.5836ZM211.522 61.118C211.293 53.8243 212.689 46.5825 212.787 39.297C212.161 39.7419 211.495 40.1432 210.866 40.5963C210.765 40.67 210.657 40.7082 210.55 40.7301C210.533 40.7465 210.52 40.7601 210.503 40.7765C210.55 48.1521 209.114 55.4839 209.218 62.8677C209.968 62.2617 210.701 61.6585 211.522 61.118ZM214.135 37.2716C214.351 37.4026 214.475 37.6237 214.351 37.8639C214.324 37.9759 214.257 38.0768 214.156 38.1642C214.206 45.8864 212.625 53.5513 212.894 61.279C212.901 61.3882 212.867 61.4783 212.817 61.5575C212.777 61.6666 212.696 61.7704 212.558 61.855C211.347 62.592 210.378 63.5501 209.268 64.3772C209.177 64.4454 209.083 64.4864 208.982 64.5082C205.316 69.277 199.309 72.4652 195.787 77.3213C195.649 77.5069 195.444 77.5861 195.239 77.5861C195.138 77.6488 195.013 77.6871 194.852 77.6925C189.1 77.7826 183.601 79.1283 177.805 78.7161C172.43 78.334 167.142 77.3704 161.73 77.3186C161.549 77.3186 161.407 77.2667 161.303 77.1903C161.206 77.1684 161.111 77.1275 161.021 77.062C158.454 75.1594 156.026 72.9429 154.29 70.4807C152.659 68.1742 151.246 65.3763 148.595 63.7221C148.37 63.5801 148.293 63.3781 148.309 63.1871C148.272 63.1188 148.256 63.0451 148.256 62.9578C148.289 55.5549 149.241 48.1357 148.145 40.7601C148.094 40.4435 148.333 40.2715 148.626 40.2333C148.642 40.2169 148.663 40.1978 148.686 40.1787C155.101 34.9869 160.55 29.0635 167.186 24.0436C167.364 23.9126 167.559 23.8744 167.748 23.899C168.753 23.0582 169.783 22.2339 170.842 21.4341C171.074 21.2539 171.354 21.2484 171.576 21.3331C171.666 21.2921 171.774 21.2703 171.895 21.2703C181.283 21.2594 190.748 20.9536 199.944 22.7798C200.005 22.7934 200.059 22.8098 200.109 22.8317C200.237 22.848 200.365 22.9026 200.476 23.02C204.933 27.5922 208.77 32.5602 213.614 36.8785C213.85 36.914 214.068 37.0505 214.135 37.2716Z" fill="white"/>
</g>
<path d="M207.186 47.5678C207.381 47.5678 207.597 50.2101 207.415 53.4775C207.186 56.7558 206.46 59.319 206.271 59.319C206.029 59.2972 206.423 56.6576 206.645 53.4448C206.826 50.2074 206.954 47.5678 207.186 47.5678Z" fill="white"/>
<path d="M204.277 37.0449C205.252 38.0112 205.78 38.6609 205.699 38.71C205.612 38.7701 204.943 38.2241 203.873 37.3479C202.783 36.4853 201.273 35.2952 199.608 33.9795C197.94 32.6556 196.52 31.3645 195.578 30.3627C194.674 29.3582 194.203 28.6839 194.28 28.6348C194.371 28.5748 194.996 29.1589 196.009 30.087C197.025 30.9905 198.484 32.2107 200.143 33.5318C201.808 34.853 203.281 36.0895 204.277 37.0449Z" fill="white"/>
<path d="M203.416 64.7265C203.493 64.7975 202.888 65.3543 201.922 66.2551C200.967 67.1614 199.692 68.4416 198.286 69.8692C196.88 71.2968 195.548 72.5661 194.509 73.4341C193.463 74.294 192.756 74.7635 192.682 74.7062C192.598 74.6434 193.173 74.0565 194.105 73.1339C195.023 72.1976 196.291 70.901 197.684 69.4734C199.097 68.0403 200.456 66.7874 201.529 65.9494C202.608 65.1168 203.352 64.6692 203.416 64.7265Z" fill="white"/>
<path d="M196.793 40.6345C197.365 41.4152 197.677 41.9202 197.593 41.972C197.502 42.0212 197.032 41.6035 196.345 40.8856C195.659 40.1623 194.764 39.1468 193.752 38.0468C192.723 36.9631 191.73 36.0186 190.967 35.4017C190.792 35.2352 190.597 35.0987 190.429 34.9786C190.264 34.8585 190.123 34.7521 190.015 34.662C189.79 34.4791 189.682 34.359 189.712 34.3262C189.743 34.2908 189.914 34.3399 190.193 34.4655C190.331 34.5228 190.493 34.6019 190.684 34.6947C190.876 34.7876 191.088 34.8967 191.307 35.0523C192.228 35.6283 193.311 36.5564 194.364 37.6646C195.397 38.7892 196.228 39.8511 196.793 40.6345Z" fill="white"/>
<path d="M187.533 68.1004C188.424 67.6091 189.282 67.085 190.109 66.5445C184.7 66.2688 179.275 66.348 173.87 65.9713C173.624 66.0777 173.318 66.075 173.116 65.8785C172.847 65.7693 172.719 65.5318 172.726 65.3052C171.068 62.7284 168.592 60.5092 166.16 58.4074C166.127 58.3828 166.103 58.3528 166.076 58.3282C165.851 58.26 165.689 58.0907 165.73 57.8287C166.547 52.7433 165.979 47.647 165.861 42.5453C165.191 43.2795 164.468 43.9783 163.671 44.6334C163.671 44.6471 163.674 44.6635 163.674 44.6771C163.701 49.8717 164.27 55.0581 163.476 60.228C166.016 62.4227 168.626 64.7648 170.331 67.4699C176.022 67.8575 181.737 67.7456 187.428 68.084C187.465 68.0895 187.502 68.0949 187.533 68.1004ZM195.646 43.9674C195.636 43.9592 195.632 43.9592 195.622 43.9538C192.518 41.7564 190.715 38.7401 188.118 36.1906H188.115C182.248 36.1906 176.638 36.1906 170.957 36.1906C169.611 37.7738 168.441 39.4553 167.136 41.0576C167.183 41.134 167.213 41.2186 167.213 41.3196C167.25 46.7599 167.963 52.1974 167.126 57.6185C169.672 59.8104 172.279 62.1552 173.984 64.8576C179.675 65.2452 185.39 65.136 191.081 65.4745C191.249 65.4854 191.384 65.5345 191.488 65.6028C192.713 64.7265 193.866 63.7821 194.956 62.7694C194.896 62.6902 194.855 62.6001 194.852 62.4909C194.563 56.3055 195.582 50.1501 195.646 43.9674ZM196.725 43.2905C196.897 43.3751 197.021 43.5279 197.021 43.7463C196.978 49.9972 195.935 56.2209 196.221 62.48C196.443 62.6793 196.524 62.9987 196.248 63.258C193.873 65.5345 191.145 67.4589 188.118 69.1295C187.93 69.2305 187.741 69.2469 187.583 69.2005C187.539 69.2059 187.482 69.2087 187.428 69.2059C181.693 68.8647 175.945 68.9794 170.217 68.5836C169.968 68.69 169.662 68.6846 169.46 68.488C169.191 68.3816 169.063 68.1414 169.073 67.9175C167.415 65.3407 164.939 63.1188 162.504 61.0196C162.474 60.9924 162.45 60.9623 162.423 60.9378C162.198 60.8722 162.033 60.703 162.077 60.4382C162.921 55.2 162.336 49.9372 162.302 44.6771C162.302 44.6225 162.312 44.5734 162.326 44.527C162.262 44.3578 162.299 44.1667 162.504 44.0029C165.619 41.5435 167.455 38.2979 169.931 35.4399C170.032 35.3307 170.156 35.2625 170.284 35.2243C170.395 35.1315 170.546 35.0714 170.755 35.0714C176.463 35.0714 182.097 35.0714 187.99 35.0714C188.232 34.924 188.572 34.8967 188.824 35.1424C191.562 37.7356 193.389 40.8993 196.591 43.1622C196.651 43.2031 196.692 43.244 196.725 43.2905Z" fill="white"/>
<path d="M167.674 34.5091C167.835 34.6183 165.999 36.6328 163.574 39.0022C161.145 41.3715 159.043 43.2004 158.881 43.0885C158.716 42.982 160.553 40.9648 162.978 38.5982C165.41 36.2288 167.509 34.3999 167.674 34.5091Z" fill="white"/>
<path d="M159.766 72.0721C160.735 72.9565 161.465 73.4097 161.391 73.4943C161.343 73.5543 160.489 73.2241 159.379 72.3888C158.817 71.9766 158.232 71.4252 157.617 70.7892C157.011 70.1477 156.402 69.4162 155.804 68.63C154.62 67.055 153.624 65.6165 152.823 64.6174C152.046 63.6156 151.478 63.0151 151.569 62.9578C151.643 62.9086 152.342 63.3891 153.271 64.3554C154.199 65.3135 155.286 66.7384 156.459 68.297C157.048 69.075 157.63 69.801 158.182 70.4425C158.753 71.0785 159.275 71.6436 159.766 72.0721Z" fill="white"/>
<path d="M152.938 42.4388C153.153 42.4388 153.325 45.0702 153.325 48.3131C153.325 51.5614 153.153 54.19 152.938 54.19C152.726 54.19 152.554 51.5614 152.554 48.3131C152.554 45.0702 152.726 42.4388 152.938 42.4388Z" fill="white"/>
<mask id="mask3_304_2" style="mask-type:luminance" maskUnits="userSpaceOnUse" x="221" y="21" width="54" height="58">
<path d="M221 21H275V79H221V21Z" fill="white"/>
</mask>
<g mask="url(#mask3_304_2)">
<path d="M234.989 24.5458C235.767 23.8006 236.713 23.2219 237.474 22.4685C233.378 22.9872 229.244 22.5504 225.122 22.5259C225.054 22.5259 224.986 22.5095 224.929 22.4904C224.193 23.2574 223.44 24.0054 222.719 24.7806C226.812 24.8761 230.94 25.2828 234.989 24.5458ZM235.784 57.1736C235.847 53.5813 235.861 49.9781 235.872 46.3777C235.21 44.931 234.585 43.4406 233.588 42.245C233.534 48.3322 233.616 54.4521 233.454 60.5338C233.307 65.9549 232.477 71.5562 233.579 76.9254C234.562 76.3413 235.386 75.5415 236.139 74.6871C234.733 68.9439 235.685 63.0041 235.784 57.1736ZM258.713 59.6303C258.94 57.7522 259.114 55.8715 259.224 53.9908C258.483 52.7215 257.793 51.4167 256.98 50.2484C254.741 47.0356 252.25 43.9947 249.918 40.8447C247.739 37.8994 245.844 34.8585 244.105 31.6593C242.457 28.6267 240.824 25.5695 238.673 22.8371C237.849 23.7515 236.778 24.4093 235.889 25.2555C240.153 30.5866 242.594 37.0231 246.608 42.5234C248.923 45.6871 251.432 48.717 253.699 51.9135C254.767 53.4121 255.852 54.927 256.736 56.5403C257.332 57.6239 257.912 58.694 258.713 59.6303ZM270.082 52.6095C270.102 43.8091 270.321 35.0141 270.341 26.2137C267.011 25.7769 263.651 25.6568 260.293 25.6377C260.577 28.4138 260.366 31.2526 260.409 34.0369C260.452 37.0968 260.531 40.1623 260.571 43.2249C260.636 49.061 260.528 55.0581 259.733 60.774C259.69 61.0879 259.432 61.2653 259.173 61.2981C258.991 61.3527 258.787 61.3281 258.611 61.1698C256.355 59.1335 255.196 56.0599 253.489 53.6059C251.25 50.3931 248.758 47.3522 246.423 44.2022C244.247 41.2596 242.347 38.2187 240.608 35.0196C238.875 31.8231 237.162 28.5967 234.832 25.7551C234.81 25.7414 234.79 25.7278 234.77 25.7114C230.614 26.3774 226.412 25.9543 222.216 25.8916C222.284 34.4381 222.773 42.9629 222.642 51.5231C222.506 60.1216 222.23 68.7173 222.216 77.313C225.585 77.8044 228.991 77.6652 232.389 77.6351C232.415 77.5778 232.454 77.526 232.514 77.4796C231.298 71.911 232.19 66.1678 232.29 60.5338C232.403 54.1054 232.352 47.6716 232.435 41.2432C232.435 41.1913 232.443 41.1395 232.457 41.0931C232.216 40.64 232.92 40.0749 233.429 40.4734C236.142 42.6244 236.54 45.7908 238.293 48.4222C240.446 51.6624 242.79 54.7796 244.895 58.0525C247.122 61.5219 249.156 65.136 251.645 68.4471C253.989 71.5753 256.741 74.3978 259.116 77.5069C262.645 77.5123 266.176 77.5614 269.71 77.4987C269.085 73.4451 269.727 69.4407 269.875 65.3653C270.031 61.1179 270.074 56.8596 270.082 52.6095ZM270.702 25.1409C271.409 24.2865 272.239 23.544 273.025 22.7579C269.889 22.3894 266.73 22.2911 263.577 22.2775C263.048 23.1919 262.295 23.8743 261.497 24.5322C264.574 24.5759 267.648 24.7342 270.702 25.1409ZM273.574 49.2521C273.594 40.6864 273.804 32.1261 273.827 23.5631C273.037 24.3466 272.19 25.089 271.506 25.9653C271.494 34.6128 271.267 43.255 271.25 51.9053C271.239 56.1554 271.224 60.4137 271.068 64.6638C270.918 68.7501 270.227 72.8391 270.787 76.9063C271.665 76.1256 272.315 75.0993 273.236 74.3595C272.554 70.2323 273.219 66.1569 273.369 62.0051C273.523 57.7604 273.568 53.5022 273.574 49.2521ZM275 22.3375C274.991 31.0725 274.758 39.8074 274.744 48.5478C274.733 52.7952 274.716 57.0562 274.56 61.3063C274.398 65.7229 273.602 70.1422 274.44 74.537C274.508 74.8918 274.261 75.143 273.983 75.2167C272.864 76.1393 272.114 77.4086 270.92 78.2439C270.844 78.4486 270.653 78.5987 270.389 78.6069C266.514 78.6943 262.636 78.6287 258.761 78.626C258.443 78.626 258.261 78.4186 258.213 78.1865C258.185 78.162 258.156 78.1319 258.131 78.0992C255.611 74.7936 252.633 71.8373 250.227 68.4525C247.96 65.2643 246.017 61.8877 243.889 58.6148C241.73 55.301 239.375 52.1127 237.176 48.8262C237.131 48.7634 237.094 48.6979 237.054 48.6352C237.045 51.4877 237.026 54.3347 236.949 57.1736C236.79 62.9741 235.852 68.9739 237.329 74.6816C237.392 74.9219 237.298 75.1129 237.145 75.2358C237.119 75.2849 237.094 75.334 237.051 75.3832C236.133 76.4314 235.097 77.4277 233.844 78.0828C233.923 78.5086 233.517 78.7734 233.162 78.7325C233.119 78.7407 233.068 78.7489 233.017 78.7489C229.199 78.7625 225.392 78.9481 221.605 78.3558C221.409 78.3258 221.287 78.2193 221.224 78.0937C221.122 78.0037 221.048 77.8726 221.048 77.6925C221.054 68.9657 221.349 60.2499 221.477 51.5231C221.54 47.1639 221.574 42.7964 221.497 38.4344C221.42 34.1406 221.077 29.8605 221.048 25.5695C221.048 25.5094 221.06 25.4521 221.074 25.4029C221.068 25.3729 221.065 25.3429 221.065 25.3129C221.011 25.1409 221.034 24.9416 221.185 24.7697C222.176 23.6396 223.253 22.5968 224.293 21.505C224.506 21.2839 224.773 21.2921 224.974 21.4204C225.023 21.4094 225.071 21.404 225.122 21.404C229.597 21.434 234.122 21.999 238.551 21.1747C238.991 21.0955 239.278 21.4449 239.281 21.7698C243.614 27.1226 246.054 33.6192 250.105 39.1659C252.418 42.3296 254.923 45.3595 257.19 48.5533C257.92 49.5796 258.659 50.6196 259.335 51.6815C259.446 48.627 259.443 45.567 259.398 42.5125C259.349 39.4553 259.267 36.3953 259.233 33.3354C259.204 30.633 259.415 27.8869 259.085 25.1955C259.074 25.0918 259.091 25.0071 259.122 24.9307C259.179 24.7041 259.358 24.5131 259.668 24.5131C259.687 24.5131 259.707 24.5131 259.727 24.5131C260.787 23.6396 261.926 22.8671 262.602 21.6551C262.631 21.3958 262.812 21.1556 263.159 21.1556C266.895 21.1638 270.619 21.2975 274.315 21.7971C274.324 21.7971 274.332 21.7998 274.344 21.8052C274.656 21.767 275 21.9417 275 22.3375Z" fill="white"/>
</g>
<path d="M268.384 39.7009C268.409 42.0566 268.398 45.3076 268.344 48.8971C268.29 52.4866 268.202 55.7377 268.111 58.0879C268.014 60.4382 267.912 61.8958 267.818 61.8958C267.727 61.8904 267.673 60.4354 267.645 58.0852C267.622 55.7295 267.634 52.4785 267.688 48.8917C267.742 45.3022 267.827 42.0511 267.921 39.7009C268.014 37.3506 268.119 35.8957 268.207 35.8957C268.301 35.8957 268.358 37.3506 268.384 39.7009Z" fill="white"/>
<path d="M262.128 31.168C262.307 31.168 262.455 34.1761 262.455 37.8857C262.455 41.5953 262.307 44.6007 262.128 44.6007C261.946 44.6007 261.798 41.5953 261.798 37.8857C261.798 34.1761 261.946 31.168 262.128 31.168Z" fill="white"/>
<path d="M256.898 72.0311C257.301 72.6098 257.506 72.9401 257.472 72.9647C257.432 72.9892 257.156 72.7081 256.69 72.1731C256.219 71.6517 255.599 70.8437 254.739 69.9156C253.895 68.9793 252.898 67.8465 251.801 66.569C251.227 65.9439 250.727 65.2315 250.165 64.5136C249.892 64.1533 249.608 63.793 249.332 63.4135C249.057 63.0314 248.776 62.641 248.497 62.2452C247.409 60.6429 246.472 59.0706 245.639 57.6321C245.219 56.9169 244.824 56.2372 244.452 55.604C244.074 54.9734 243.713 54.3865 243.386 53.8515C242.713 52.8033 242.168 51.9544 241.741 51.3866C241.338 50.8079 241.131 50.4749 241.17 50.4503C241.202 50.4231 241.48 50.7015 241.946 51.2365C242.429 51.7524 243.043 52.5795 243.781 53.614C244.128 54.1409 244.523 54.7114 244.918 55.3337C245.31 55.9643 245.733 56.633 246.165 57.3455C247.026 58.7676 247.969 60.3181 249.04 61.8986C249.321 62.2862 249.591 62.6683 249.858 63.0478C250.131 63.4245 250.418 63.7902 250.685 64.1533C251.241 64.8712 251.739 65.6 252.281 66.2196C253.341 67.508 254.295 68.6627 255.097 69.6345C255.912 70.6008 256.486 71.4579 256.898 72.0311Z" fill="white"/>
<path d="M243.151 42.0321C243.787 43.5034 244.091 44.4533 244.014 44.4779C243.921 44.5106 243.469 43.6317 242.733 42.2204C241.98 40.8147 240.884 38.9039 239.625 36.8102C238.358 34.722 237.216 32.8167 236.446 31.4055C235.679 29.9943 235.267 29.0962 235.347 29.0553C235.426 29.0089 235.983 29.8387 236.849 31.1899C237.716 32.5329 238.918 34.3972 240.19 36.4909C241.455 38.5927 242.5 40.5608 243.151 42.0321Z" fill="white"/>
<path d="M223.83 41.6172C224.011 41.6172 224.156 45.7963 224.156 50.9472C224.156 56.1008 224.011 60.2772 223.83 60.2772C223.648 60.2772 223.503 56.1008 223.503 50.9472C223.503 45.7963 223.648 41.6172 223.83 41.6172Z" fill="white"/>
</svg>
